<svg width="28" viewBox="0 0 28 27" height="27" fill="none" xmlns="http://www.w3.org/2000/svg"><path d="M27.465 13.461c0 7.435-6.15 13.462-13.735 13.462C6.148 26.923 0 20.896 0 13.462 0 6.026 6.148 0 13.73 0c7.585 0 13.735 6.027 13.735 13.461z" fill="currentColor"/><path d="M21.578 18.895c.004.71-.642 1.29-1.425 1.29l-12.833.007c-.787 0-1.43-.58-1.43-1.287l-.005-.656c0-.707.646-1.288 1.431-1.288l12.833-.005c.787 0 1.43.58 1.43 1.287v.652h-.001zM20.05 14.99c.785 0 1.079-.486.654-1.083l-6.203-8.65c-.426-.597-1.123-.597-1.55 0l-6.19 8.654c-.427.596-.136 1.082.656 1.082l12.633-.004z" fill="#fff"/></svg>
