<svg width="121" height="22" fill="none" viewBox="0 0 121 22" xmlns="http://www.w3.org/2000/svg"><path d="M1.35 1.37h-.298V21.282H9.717c2.82 0 4.779-.631 6.004-2.34 1.202-1.676 1.644-4.326 1.644-8.208 0-3.356-.462-5.712-1.646-7.225-1.202-1.536-3.09-2.137-5.747-2.137H1.35zM5.5 5.535h4.217c1.32 0 2.03.202 2.468.921.234.382.406.934.518 1.737.112.802.16 1.83.16 3.153 0 1.315-.057 2.336-.19 3.13-.131.795-.335 1.34-.61 1.716-.53.73-1.406.937-2.99.937H5.5V5.534zM24.245 12.722v-.298H19.96v2.3c0 2.363.392 4.052 1.423 5.14 1.035 1.094 2.645 1.511 4.89 1.511 2.263 0 3.915-.448 4.993-1.547 1.076-1.097 1.514-2.778 1.514-5.082V.587h-4.518V14.77c0 .528-.026.937-.09 1.254-.063.317-.158.524-.282.666-.244.28-.685.41-1.616.41-1.036 0-1.478-.142-1.705-.418-.117-.141-.202-.347-.255-.665-.053-.319-.07-.724-.07-1.247v-2.048zM43.674 8.762h0c-1.01-.063-1.753-.139-2.303-.241-.555-.104-.882-.23-1.082-.374-.182-.131-.275-.29-.325-.523-.055-.253-.056-.57-.056-1.014 0-.575.069-1.038.43-1.378.374-.35 1.128-.636 2.682-.636.683 0 1.213.028 1.626.1.413.071.685.183.872.333.361.29.51.811.51 1.919V7.5h4.383V6.206c0-2.281-.746-3.724-2.11-4.57-1.33-.826-3.195-1.05-5.349-1.05-2.509 0-4.409.457-5.685 1.458-1.291 1.012-1.89 2.54-1.89 4.548 0 2.362.65 3.895 1.93 4.862 1.253.947 3.057 1.305 5.249 1.47.863.065 1.543.137 2.08.235.538.098.912.218 1.174.366.252.143.4.312.491.528.097.226.14.523.14.933 0 .857-.136 1.357-.55 1.678-.445.344-1.28.543-2.87.543-.791 0-1.393-.012-1.858-.072-.465-.06-.753-.165-.944-.318-.182-.148-.313-.37-.396-.755-.084-.391-.113-.918-.113-1.64v-.552h-4.332v1.324c0 2.784.857 4.375 2.312 5.237 1.414.839 3.332.944 5.333.944 3.183 0 5.163-.539 6.333-1.699 1.174-1.163 1.46-2.879 1.46-5.014 0-2.216-.652-3.653-1.928-4.553-1.246-.879-3.038-1.204-5.214-1.347zM53.04 4.798v.298h5.354v15.987h4.603V5.095h5.352V.879H53.04v3.918zM78.719.587c-3.096 0-5.184.519-6.466 2.103-1.265 1.562-1.68 4.085-1.68 7.885 0 2.188.082 3.956.312 5.374.23 1.418.61 2.51 1.223 3.332 1.242 1.661 3.348 2.094 6.61 2.094 3.175 0 5.277-.512 6.545-2.205.627-.837 1.03-1.936 1.278-3.342.248-1.405.345-3.137.345-5.253 0-3.758-.436-6.28-1.712-7.852C83.88 1.13 81.79.587 78.718.587zm0 16.553c-.84 0-1.466-.029-1.946-.153-.464-.12-.775-.325-1.004-.681-.24-.373-.405-.937-.506-1.81-.1-.87-.134-2.01-.134-3.513 0-1.562.038-2.731.145-3.61.107-.884.28-1.437.52-1.793.23-.339.54-.525 1.002-.629.48-.107 1.098-.121 1.922-.121.811 0 1.423.015 1.902.124.462.105.776.293 1.01.635.247.358.425.912.537 1.794.112.877.155 2.044.155 3.6 0 1.492-.037 2.628-.142 3.494-.105.87-.275 1.437-.519 1.813-.233.36-.549.569-1.012.691-.479.127-1.101.159-1.93.159zM89.78 1.37h-.299V21.282H93.958v-6.306h4.15c.805 0 1.31.162 1.615.446.301.28.47.736.47 1.475v4.385h4.489V16.59c0-1.047-.19-1.923-.594-2.602a2.974 2.974 0 00-1.175-1.121c.789-.477 1.277-1.19 1.572-1.991.361-.984.436-2.11.436-3.126 0-2.139-.468-3.752-1.523-4.826-1.057-1.075-2.645-1.552-4.75-1.552h-8.869zm4.178 4.164h4.285c.916 0 1.408.173 1.697.526.305.373.453 1.023.453 2.166 0 1.02-.18 1.651-.519 2.031-.33.37-.872.567-1.767.567H93.96v-5.29zM120.038 5.457h.298V1.371h-12.82V21.28h12.82v-4.08h-8.439v-3.959h8.049v-4.08h-8.049V5.457h8.141z" fill="currentColor" stroke="#3F476B" stroke-width=".596" stroke-miterlimit="10"/></svg>
